<svg width="416.21669311523436" height="56.12311195670264" viewBox="0 0 369.65517241379314 49.84470582252621" class="looka-1j8o68f"><defs id="SvgjsDefs1183"></defs><g id="SvgjsG1184" featurekey="G09qjj-0" transform="matrix(0.8604598422900932,0,0,0.8604598422900932,-12.79429511478291,-21.573456163960813)" fill="#00adb5"><title xmlns="http://www.w3.org/2000/svg">Cloud - Dikke Lijn</title><g xmlns="http://www.w3.org/2000/svg" data-name="Samengesteld pad"><path d="M85,58A11.4,11.4,0,0,1,73.62,69.43H71.18q.24-1,.38-2h2.05a9.38,9.38,0,1,0,0-18.77H71.09a1,1,0,0,1-.94-1.34A15.1,15.1,0,0,0,42.07,36.26a1,1,0,0,1-1.25.55,9.56,9.56,0,0,0-12.73,9,9.71,9.71,0,0,0,.15,1.66,1,1,0,0,1-1,1.17h-.85a9.38,9.38,0,0,0,0,18.77h2.37q.14,1,.38,2H26.39a11.38,11.38,0,0,1-.28-22.76c0-.28,0-.56,0-.84A11.56,11.56,0,0,1,40.6,34.65a17.1,17.1,0,0,1,31.86,12h1.16A11.4,11.4,0,0,1,85,58ZM68.78,64.38A18.62,18.62,0,1,1,50.16,45.76,18.64,18.64,0,0,1,68.78,64.38ZM38.87,52.22a20.54,20.54,0,0,0,3.79,2A22.76,22.76,0,0,1,47.21,48,16.56,16.56,0,0,0,38.87,52.22Zm-5.27,11h6.66A22.59,22.59,0,0,1,41.84,56a22.58,22.58,0,0,1-4.38-2.34A16.53,16.53,0,0,0,33.6,63.27Zm3.87,11.81a22.58,22.58,0,0,1,4.38-2.34,22.58,22.58,0,0,1-1.59-7.47H33.59A16.53,16.53,0,0,0,37.46,75.08Zm9.75,5.64a22.76,22.76,0,0,1-4.55-6.15,20.54,20.54,0,0,0-3.79,2A16.56,16.56,0,0,0,47.21,80.72Zm1.92-7.55a20.52,20.52,0,0,0-4.55.75,20.74,20.74,0,0,0,4.55,5.85Zm0-7.91H42.25a20.59,20.59,0,0,0,1.49,6.82,22.5,22.5,0,0,1,5.4-.91Zm0-7.68a22.5,22.5,0,0,1-5.4-.91,20.6,20.6,0,0,0-1.48,6.59h6.88Zm0-8.6a20.74,20.74,0,0,0-4.55,5.85,20.52,20.52,0,0,0,4.55.75ZM53,48a22.76,22.76,0,0,1,4.58,6.2,20.53,20.53,0,0,0,3.85-2A16.56,16.56,0,0,0,53,48Zm-1.91,7.56a20.53,20.53,0,0,0,4.58-.72A20.73,20.73,0,0,0,51.13,49Zm0,7.68H58a20.6,20.6,0,0,0-1.47-6.56,22.52,22.52,0,0,1-5.42.88Zm0,7.9a22.52,22.52,0,0,1,5.42.88A20.59,20.59,0,0,0,58,65.27H51.13Zm4.58,2.72a20.53,20.53,0,0,0-4.58-.72v6.61A20.73,20.73,0,0,0,55.71,73.9Zm5.78,2.62a20.52,20.52,0,0,0-3.85-2A22.76,22.76,0,0,1,53,80.73,16.56,16.56,0,0,0,61.48,76.52Zm5.26-11.25H60a22.58,22.58,0,0,1-1.58,7.43,22.54,22.54,0,0,1,4.44,2.35A16.53,16.53,0,0,0,66.74,65.27Zm0-2a16.53,16.53,0,0,0-3.84-9.56,22.54,22.54,0,0,1-4.44,2.35A22.59,22.59,0,0,1,60,63.27Z"></path></g></g><g id="SvgjsG1185" featurekey="0yvIkK-0" transform="matrix(2.4714604189449245,0,0,2.4714604189449245,77.38025209733648,-6.06072712728743)" fill="#393e46"><path d="M5.98 5.48 q2.46 0 3.86 1.78 l-1.14 0.82 q-1.04 -1.4 -2.76 -1.4 q-1.4 0 -2.27 0.72 t-0.91 1.96 q0 1.08 0.66 1.75 t2.3 1.13 q2.16 0.64 2.88 1.13 t1.09 1.21 t0.37 1.8 q0 1.72 -1.23 2.83 t-3.17 1.15 q-3.06 0 -4.6 -2.14 l1.26 -0.84 q1.06 1.76 3.24 1.78 q1.42 0 2.3 -0.79 t0.88 -1.99 q0 -0.7 -0.25 -1.15 t-0.76 -0.78 t-1.3 -0.6 t-1.85 -0.63 q-1.6 -0.52 -2.37 -1.46 t-0.77 -2.4 q0 -1.72 1.29 -2.8 t3.25 -1.08 z M13.5 17.44 q0 0.76 0.61 1.24 t1.51 0.48 q1.62 0 2.41 -0.85 t0.79 -2.31 l0 -0.64 l-1.44 0 q-1.84 0 -2.86 0.56 t-1.02 1.52 z M16.22 10.52 q1.86 0 2.76 0.86 t0.92 2.4 l0 2.74 q0 2.24 0.18 3.48 l-1.12 0 q-0.12 -0.62 -0.12 -1.5 l-0.04 0 q-1 1.74 -3.22 1.74 q-1.5 0 -2.38 -0.74 t-0.9 -2 q0 -1.54 1.33 -2.32 t3.71 -0.78 l1.48 0 l0 -0.54 q0 -1.14 -0.7 -1.7 t-1.9 -0.56 q-1.6 0 -2.82 1.04 l-0.7 -0.82 q0.66 -0.64 1.63 -0.97 t1.89 -0.33 z M26.52 20.24 q-1.76 0 -2.64 -0.99 t-0.88 -3.03 l0 -5.46 l1.2 0 l0 5.4 q0 1.5 0.57 2.25 t1.75 0.75 q1.46 0 2.32 -1 t0.88 -2.82 l0 -4.58 l1.2 0 l0 6.74 q0.04 1.02 0.1 2.5 l-1.2 0 q-0.02 -1.14 -0.08 -1.62 l-0.06 0 q-0.4 0.86 -1.27 1.36 t-1.89 0.5 z M38.34 10.52 q0.34 0 0.7 0.1 l-0.14 1.18 q-0.22 -0.08 -0.48 -0.08 q-1.46 0 -2.23 0.9 t-0.77 2.34 l0 5.04 l-1.2 0 l0 -6.74 q0 -0.2 -0.1 -2.5 l1.2 0 q0.04 1.38 0.08 1.62 q1.04 -1.86 2.94 -1.86 z M41.660000000000004 17.44 q0 0.76 0.61 1.24 t1.51 0.48 q1.62 0 2.41 -0.85 t0.79 -2.31 l0 -0.64 l-1.44 0 q-1.84 0 -2.86 0.56 t-1.02 1.52 z M44.38 10.52 q1.86 0 2.76 0.86 t0.92 2.4 l0 2.74 q0 2.24 0.18 3.48 l-1.12 0 q-0.12 -0.62 -0.12 -1.5 l-0.04 0 q-1 1.74 -3.22 1.74 q-1.5 0 -2.38 -0.74 t-0.9 -2 q0 -1.54 1.33 -2.32 t3.71 -0.78 l1.48 0 l0 -0.54 q0 -1.14 -0.7 -1.7 t-1.9 -0.56 q-1.6 0 -2.82 1.04 l-0.7 -0.82 q0.66 -0.64 1.63 -0.97 t1.89 -0.33 z M52.080000000000005 15.379999999999999 q0 1.6 1.15 2.67 t2.71 1.11 q1.62 0 2.64 -1.09 t1.02 -2.69 q0 -1.64 -1.03 -2.71 t-2.65 -1.07 q-1.58 0 -2.69 1.09 t-1.15 2.69 z M51.00000000000001 4.880000000000001 l1.2 0 l0 7.5 l0.04 0 q0.52 -0.9 1.54 -1.38 t2.16 -0.48 q2.16 0 3.51 1.4 t1.35 3.46 q0 2.14 -1.38 3.49 t-3.48 1.37 q-1.18 0 -2.21 -0.52 t-1.49 -1.34 l-0.04 0 l0 1.62 l-1.2 0 l0 -15.12 z M63.480000000000004 4.880000000000001 l1.2 0 l0 7.5 l0.04 0 q0.4 -0.86 1.27 -1.36 t1.89 -0.5 q3.52 0 3.52 3.9 l0 5.58 l-1.2 0 l0 -5.46 q0 -2.94 -2.32 -2.94 q-1.5 0 -2.35 1.03 t-0.85 2.71 l0 4.66 l-1.2 0 l0 -15.12 z M84.52000000000001 12.08 q1.28 0 2.1 -0.63 t0.84 -1.87 q0 -1.16 -0.82 -1.85 t-2.18 -0.69 l-3 0 l0 5.04 l3.06 0 z M84.18 5.84 q2.16 0 3.36 0.96 t1.24 2.78 q0 1.7 -1.16 2.69 t-3.02 1.01 l-3.14 0 l0 6.72 l-1.32 0 l0 -14.16 l4.04 0 z M91.96000000000001 15.379999999999999 q0 1.66 1.04 2.72 t2.62 1.06 q1.64 0 2.65 -1.08 t1.01 -2.7 q0 -1.6 -1 -2.68 t-2.68 -1.1 q-1.62 0 -2.62 1.08 t-1.02 2.7 z M95.62 10.52 q2.12 0 3.48 1.38 t1.38 3.48 q0 2.14 -1.39 3.49 t-3.47 1.37 q-2.18 -0.02 -3.51 -1.4 t-1.35 -3.46 q0 -2.14 1.37 -3.49 t3.49 -1.37 z M103.84 8.1 l1.2 0 l0 2.66 l2.64 0 l0 1.08 l-2.64 0 l0 6.04 q0 0.58 0.34 0.93 t0.94 0.35 q0.66 0 1.36 -0.32 l0.1 1.08 q-0.9 0.32 -1.58 0.32 q-1.18 0 -1.77 -0.66 t-0.59 -1.7 l0 -6.04 l-2 0 l0 -1.08 l2 0 l0 -2.66 z M117.06 14.6 q0 -1.26 -0.94 -2.13 t-2.28 -0.87 q-1.3 0 -2.24 0.87 t-1.1 2.13 l6.56 0 z M113.92 10.52 q1.92 0 3.12 1.24 t1.22 3.2 l0 0.72 l-7.76 0 q0.08 1.56 1.03 2.51 t2.47 0.97 q0.94 0 1.79 -0.45 t1.31 -1.19 l0.88 0.74 q-1.3 1.98 -4 1.98 q-2.12 -0.02 -3.39 -1.38 t-1.29 -3.5 q0 -2.08 1.31 -3.45 t3.31 -1.39 z"></path></g></svg>