<svg width="384.20002441406245" height="114.62640699081481" viewBox="0 0 370.05882352941177 110.40736757140057" class="looka-1j8o68f"><defs id="SvgjsDefs2863"></defs><g id="SvgjsG2864" featurekey="symbolFeature-0" transform="matrix(1.2867647058823528,0,0,1.2867647058823528,-12.867647058823529,-8.867647058823529)" fill="#415f9d"><path xmlns="http://www.w3.org/2000/svg" d="M31.6611328,66.5234375c0.3935547,0.4619141,0.9697266,0.7275391,1.5791016,0.7275391h33.5195312  c0.6132812,0,1.1914062-0.2675781,1.5849609-0.734375c0.3916016-0.4628906,0.5576172-1.0703125,0.4570312-1.6660156  l-2.2158203-13.0668335v-19.237854c0-1.6298828-1.3349609-2.9550781-2.9755859-2.9550781H36.2841797  c-1.640625,0-2.9755859,1.3251953-2.9755859,2.9550781v19.2436523l-2.1123047,13.0766602  C31.1005859,65.4609375,31.2705078,66.0644531,31.6611328,66.5234375z M35.1600952,52.8701172h6.0682983l-0.4790039,4.8583984  h-6.3740845L35.1600952,52.8701172z M43.237854,52.8701172h5.8197632v4.8583984h-6.2987671L43.237854,52.8701172z   M49.0576172,59.7285156v5.4874878l-7.0355835-0.013916l0.5396118-5.4735718H49.0576172z M51.0576172,59.7285156h6.4949951  l0.5427856,5.5053101l-7.0377808-0.013916V59.7285156z M51.0576172,57.7285156v-4.8583984h5.8187866l0.4790039,4.8583984H51.0576172  z M58.8858643,52.8701172h5.8499146l0.7942505,4.8583984h-6.1651611L58.8858643,52.8701172z M64.5859375,50.8701172H35.3085938  V36.8632812h29.2773438V50.8701172z M33.1708984,65.1845703l0.8813477-5.4560547h6.499939l-0.5393066,5.4696045  L33.1708984,65.1845703z M60.1052856,65.237793l-0.5432129-5.5092773h6.2949219l0.902771,5.5224609L60.1052856,65.237793z   M36.2841797,31.5908203h27.3261719c0.5380859,0,0.9755859,0.4287109,0.9755859,0.9550781v2.3173828H35.3085938v-2.3173828  C35.3085938,32.0195312,35.7460938,31.5908203,36.2841797,31.5908203z"></path><path xmlns="http://www.w3.org/2000/svg" d="M56.3662109,16.3369141C56.3662109,12.8427734,53.5107422,10,50,10s-6.3662109,2.8427734-6.3662109,6.3369141  c0,3.4931641,2.8554688,6.3359375,6.3662109,6.3359375S56.3662109,19.8300781,56.3662109,16.3369141z M45.6337891,16.3369141  C45.6337891,13.9453125,47.5927734,12,50,12s4.3662109,1.9453125,4.3662109,4.3369141  c0,2.390625-1.9589844,4.3359375-4.3662109,4.3359375S45.6337891,18.7275391,45.6337891,16.3369141z"></path><path xmlns="http://www.w3.org/2000/svg" d="M80.1552734,26.2089844c-0.0048828-1.6962891-0.6689453-3.2919922-1.8710938-4.4931641  c-1.2011719-1.2021484-2.796875-1.8662109-4.4931641-1.8710938c-0.0058594,0-0.0117188,0-0.0185547,0  c-1.6904297,0-3.2773438,0.65625-4.4707031,1.8496094c-1.1972656,1.1972656-1.8544922,2.7919922-1.8496094,4.4892578  c0.0048828,1.6962891,0.6689453,3.2919922,1.8710938,4.4931641c1.2011719,1.2021484,2.796875,1.8662109,4.4931641,1.8710938  c0.0058594,0,0.0117188,0,0.0185547,0c1.6904297,0,3.2773438-0.65625,4.4707031-1.8496094  C79.5029297,29.5009766,80.1601562,27.90625,80.1552734,26.2089844z M76.8916016,29.2841797  c-1.6904297,1.6904297-4.4501953,1.6826172-6.1542969-0.0214844c-1.7021484-1.703125-1.7119141-4.4638672-0.0214844-6.1542969  c0.8417969-0.8417969,1.9482422-1.2617188,3.0576172-1.2617188c1.1191406,0,2.2412109,0.4277344,3.0966797,1.2832031  C78.5722656,24.8330078,78.5820312,27.59375,76.8916016,29.2841797z"></path><path xmlns="http://www.w3.org/2000/svg" d="M83.6630859,43.6337891c-3.4931641,0-6.3359375,2.8554688-6.3359375,6.3662109s2.8427734,6.3662109,6.3359375,6.3662109  C87.1572266,56.3662109,90,53.5107422,90,50S87.1572266,43.6337891,83.6630859,43.6337891z M83.6630859,54.3662109  c-2.390625,0-4.3359375-1.9589844-4.3359375-4.3662109s1.9453125-4.3662109,4.3359375-4.3662109  C86.0546875,45.6337891,88,47.5927734,88,50S86.0546875,54.3662109,83.6630859,54.3662109z"></path><path xmlns="http://www.w3.org/2000/svg" d="M73.8349609,67.4521484c-0.0068359,0-0.0126953,0-0.0185547,0  c-1.6962891,0.0048828-3.2919922,0.6689453-4.4931641,1.8710938c-1.2021484,1.2011719-1.8662109,2.796875-1.8710938,4.4931641  c-0.0048828,1.6972656,0.6523438,3.2919922,1.8496094,4.4892578c1.1933594,1.1933594,2.7802734,1.8496094,4.4707031,1.8496094  c0.0068359,0,0.0126953,0,0.0185547,0c1.6962891-0.0048828,3.2919922-0.6689453,4.4931641-1.8710938  c1.2021484-1.2011719,1.8662109-2.796875,1.8710938-4.4931641c0.0048828-1.6972656-0.6523438-3.2919922-1.8496094-4.4892578  C77.1123047,68.1083984,75.5253906,67.4521484,73.8349609,67.4521484z M76.8701172,76.8701172  c-1.7041016,1.703125-4.4638672,1.7128906-6.1542969,0.0214844c-1.6904297-1.6904297-1.6806641-4.4511719,0.0214844-6.1542969  c0.8554688-0.8554688,1.9775391-1.2832031,3.0966797-1.2832031c1.109375,0,2.2158203,0.4199219,3.0576172,1.2617188  C78.5820312,72.40625,78.5722656,75.1669922,76.8701172,76.8701172z"></path><path xmlns="http://www.w3.org/2000/svg" d="M43.6337891,83.6630859C43.6337891,87.1572266,46.4892578,90,50,90s6.3662109-2.8427734,6.3662109-6.3369141  c0-3.4931641-2.8554688-6.3359375-6.3662109-6.3359375S43.6337891,80.1699219,43.6337891,83.6630859z M54.3662109,83.6630859  C54.3662109,86.0546875,52.4072266,88,50,88s-4.3662109-1.9453125-4.3662109-4.3369141  c0-2.390625,1.9589844-4.3359375,4.3662109-4.3359375S54.3662109,81.2724609,54.3662109,83.6630859z"></path><path xmlns="http://www.w3.org/2000/svg" d="M19.8447266,73.7910156c0.0048828,1.6962891,0.6689453,3.2919922,1.8710938,4.4931641  c1.2011719,1.2021484,2.796875,1.8662109,4.4931641,1.8710938c0.0058594,0,0.0117188,0,0.0185547,0  c1.6904297,0,3.2773438-0.65625,4.4707031-1.8496094c1.1972656-1.1972656,1.8544922-2.7919922,1.8496094-4.4892578  c-0.0048828-1.6962891-0.6689453-3.2919922-1.8710938-4.4931641c-1.2011719-1.2021484-2.796875-1.8662109-4.4931641-1.8710938  c-0.0058594,0-0.0117188,0-0.0185547,0c-1.6904297,0-3.2773438,0.65625-4.4707031,1.8496094  C20.4970703,70.4990234,19.8398438,72.09375,19.8447266,73.7910156z M23.1083984,70.7158203  c0.8417969-0.8417969,1.9482422-1.2617188,3.0576172-1.2617188c1.1191406,0,2.2412109,0.4277344,3.0966797,1.2832031  c1.7021484,1.703125,1.7119141,4.4638672,0.0214844,6.1542969c-1.6914062,1.6914062-4.4511719,1.6816406-6.1542969-0.0214844  C21.4277344,75.1669922,21.4179688,72.40625,23.1083984,70.7158203z"></path><path xmlns="http://www.w3.org/2000/svg" d="M16.3369141,56.3662109c3.4931641,0,6.3359375-2.8554688,6.3359375-6.3662109s-2.8427734-6.3662109-6.3359375-6.3662109  C12.8427734,43.6337891,10,46.4892578,10,50S12.8427734,56.3662109,16.3369141,56.3662109z M16.3369141,45.6337891  c2.390625,0,4.3359375,1.9589844,4.3359375,4.3662109s-1.9453125,4.3662109-4.3359375,4.3662109  C13.9453125,54.3662109,12,52.4072266,12,50S13.9453125,45.6337891,16.3369141,45.6337891z"></path><path xmlns="http://www.w3.org/2000/svg" d="M26.1650391,32.5478516c0.0068359,0,0.0126953,0,0.0185547,0c1.6962891-0.0048828,3.2919922-0.6689453,4.4931641-1.8710938  c1.2021484-1.2011719,1.8662109-2.796875,1.8710938-4.4931641c0.0048828-1.6972656-0.6523438-3.2919922-1.8496094-4.4892578  c-1.1933594-1.1933594-2.7802734-1.8496094-4.4707031-1.8496094c-0.0068359,0-0.0126953,0-0.0185547,0  c-1.6962891,0.0048828-3.2919922,0.6689453-4.4931641,1.8710938c-1.2021484,1.2011719-1.8662109,2.796875-1.8710938,4.4931641  c-0.0048828,1.6972656,0.6523438,3.2919922,1.8496094,4.4892578C22.8876953,31.8916016,24.4746094,32.5478516,26.1650391,32.5478516  z M23.1298828,23.1298828c0.8554688-0.8554688,1.9775391-1.2832031,3.0966797-1.2832031  c1.109375,0,2.2158203,0.4199219,3.0576172,1.2617188c1.6904297,1.6904297,1.6806641,4.4511719-0.0214844,6.1542969  c-1.703125,1.7041016-4.4628906,1.7119141-6.1542969,0.0214844C21.4179688,27.59375,21.4277344,24.8330078,23.1298828,23.1298828z"></path><path xmlns="http://www.w3.org/2000/svg" d="M33.625,21.5810547c0.1650391,0,0.3320312-0.0410156,0.4863281-0.1269531  c2.078125-1.1582031,4.2832031-2.0888672,6.5556641-2.765625c0.5292969-0.1572266,0.8310547-0.7138672,0.6728516-1.2431641  c-0.15625-0.5292969-0.7128906-0.8330078-1.2431641-0.6728516c-2.4121094,0.7177734-4.7539062,1.7050781-6.9599609,2.9355469  c-0.4824219,0.2685547-0.6552734,0.8779297-0.3857422,1.3603516C32.9335938,21.3964844,33.2744141,21.5810547,33.625,21.5810547z"></path><path xmlns="http://www.w3.org/2000/svg" d="M65.453125,21.2246094c0.1513672,0.0810547,0.3134766,0.1201172,0.4746094,0.1201172  c0.3554688,0,0.6992188-0.1894531,0.8808594-0.5244141c0.2626953-0.4853516,0.0820312-1.0917969-0.4042969-1.3554688  c-2.2158203-1.1992188-4.5703125-2.15625-6.9980469-2.8447266c-0.5283203-0.1552734-1.0830078,0.15625-1.234375,0.6894531  c-0.1503906,0.53125,0.1582031,1.0839844,0.6894531,1.234375C61.1474609,19.1923828,63.3652344,20.0947266,65.453125,21.2246094z"></path><path xmlns="http://www.w3.org/2000/svg" d="M81.1865234,40.5419922c0.1289062,0.4345703,0.5263672,0.7148438,0.9580078,0.7148438  c0.09375,0,0.1904297-0.0136719,0.2851562-0.0419922c0.5292969-0.1572266,0.8310547-0.7138672,0.6728516-1.2431641  c-0.7177734-2.4121094-1.7050781-4.7539062-2.9355469-6.9599609c-0.2685547-0.4833984-0.8789062-0.6552734-1.3603516-0.3857422  c-0.4824219,0.2685547-0.6552734,0.8779297-0.3857422,1.3603516C79.5791016,36.0644531,80.5097656,38.2695312,81.1865234,40.5419922  z"></path><path xmlns="http://www.w3.org/2000/svg" d="M82.5654297,58.046875c-0.5273438-0.1542969-1.0839844,0.1572266-1.234375,0.6894531  c-0.6484375,2.2861328-1.5507812,4.5039062-2.6806641,6.5917969c-0.2626953,0.4853516-0.0820312,1.0917969,0.4042969,1.3554688  c0.1513672,0.0810547,0.3134766,0.1201172,0.4746094,0.1201172c0.3554688,0,0.6992188-0.1894531,0.8808594-0.5244141  c1.1992188-2.2158203,2.15625-4.5703125,2.8447266-6.9980469C83.4052734,58.75,83.0966797,58.1972656,82.5654297,58.046875z"></path><path xmlns="http://www.w3.org/2000/svg" d="M65.8886719,78.2958984c-2.078125,1.1582031-4.2832031,2.0888672-6.5556641,2.765625  c-0.5292969,0.1572266-0.8310547,0.7138672-0.6728516,1.2431641c0.1289062,0.4345703,0.5263672,0.7148438,0.9580078,0.7148438  c0.09375,0,0.1904297-0.0136719,0.2851562-0.0419922c2.4121094-0.7177734,4.7539062-1.7050781,6.9599609-2.9355469  c0.4824219-0.2685547,0.6552734-0.8779297,0.3857422-1.3603516C66.9804688,78.1992188,66.3701172,78.0273438,65.8886719,78.2958984z  "></path><path xmlns="http://www.w3.org/2000/svg" d="M34.546875,78.5253906c-0.4853516-0.2607422-1.0917969-0.0830078-1.3554688,0.4042969  c-0.2626953,0.4853516-0.0820312,1.0917969,0.4042969,1.3554688c2.2158203,1.1992188,4.5703125,2.15625,6.9980469,2.8447266  c0.0908203,0.0263672,0.1826172,0.0380859,0.2734375,0.0380859c0.4355469,0,0.8359375-0.2871094,0.9609375-0.7275391  c0.1503906-0.53125-0.1582031-1.0839844-0.6894531-1.234375C38.8525391,80.5576172,36.6347656,79.6552734,34.546875,78.5253906z"></path><path xmlns="http://www.w3.org/2000/svg" d="M18.8134766,59.2080078c-0.15625-0.5292969-0.7128906-0.8320312-1.2431641-0.6728516  c-0.5292969,0.1572266-0.8310547,0.7138672-0.6728516,1.2431641c0.7177734,2.4121094,1.7050781,4.7539062,2.9355469,6.9599609  c0.1826172,0.328125,0.5234375,0.5126953,0.8740234,0.5126953c0.1650391,0,0.3320312-0.0410156,0.4863281-0.1269531  c0.4824219-0.2685547,0.6552734-0.8779297,0.3857422-1.3603516C20.4208984,63.6855469,19.4902344,61.4804688,18.8134766,59.2080078z  "></path><path xmlns="http://www.w3.org/2000/svg" d="M19.5898438,33.4707031c-1.1992188,2.2158203-2.15625,4.5703125-2.8447266,6.9980469  C16.5947266,41,16.9033203,41.5527344,17.4345703,41.703125c0.0908203,0.0263672,0.1826172,0.0380859,0.2734375,0.0380859  c0.4355469,0,0.8359375-0.2871094,0.9609375-0.7275391c0.6484375-2.2861328,1.5507812-4.5039062,2.6806641-6.5917969  c0.2626953-0.4853516,0.0820312-1.0917969-0.4042969-1.3554688C20.4589844,32.8076172,19.8535156,32.9833984,19.5898438,33.4707031z  "></path></g><g id="SvgjsG2865" featurekey="nameFeature-0" transform="matrix(1.102547400529218,0,0,1.102547400529218,120.79490467320599,-10.231637479556946)" fill="#233b6e"><path d="M27.6 30.92 q0 2.92 -1.76 5.2 q-1.72 2.16 -4.74 3.36 t-6.82 1.2 q-3.48 0 -6.76 -1.62 t-5.52 -4.5 l3.12 -2.92 q3.88 4.68 9.16 4.68 q2.32 0 4.24 -0.56 q2.12 -0.64 3.28 -1.8 q1.32 -1.28 1.32 -3.04 q0 -2.12 -1.32 -3.2 q-1.12 -0.92 -3.32 -1.2 q-1.28 -0.16 -4.2 -0.16 q-5.36 0 -8.18 -1.96 t-2.82 -5.76 q0 -2.4 1.42 -4.56 t3.9 -3.44 q2.56 -1.36 5.68 -1.36 q3.52 0 6.36 1.08 q3.04 1.16 5.64 3.64 l-2.72 3.2 q-2.44 -1.96 -4.44 -2.74 t-4.84 -0.78 q-1.64 0 -3.06 0.68 t-2.26 1.82 t-0.84 2.42 q0 3.44 6.36 3.44 q5.08 0 8.04 1.04 q2.8 1 4 3.04 q1.08 1.8 1.08 4.8 z M43.32 13.32 l-1.64 -3.68 l4.8 0 l14.36 30.36 l-4.88 0 l-1.96 -4.36 l-9.08 0 q-2.56 0 -4.6 0.48 q-1.8 0.44 -3 1.16 q-1.08 0.64 -1.44 1.32 l-0.76 1.4 l-4.72 0 z M46.52 31.240000000000002 l5.52 0 l-6.52 -12.6 l-6.6 14.28 q0.88 -0.76 2.68 -1.2 q2.04 -0.48 4.92 -0.48 z M79.44 40.68 q-4.2 0 -7.22 -1.46 t-4.6 -4.22 t-1.58 -6.6 l0 -18.24 l4.32 0 l0 18.24 q0 3.84 2.36 5.88 t6.72 2.04 t6.72 -2.04 t2.36 -5.88 l0 -18.24 l4.32 0 l0 18.24 q0 3.84 -1.58 6.6 t-4.6 4.22 t-7.22 1.46 z M105.60000000000001 14.52 l0 9.92 q1.24 -0.72 2.76 -0.96 q1.12 -0.2 2.88 -0.2 l5.68 0 q2.36 0 3.68 -1.08 q1.4 -1.16 1.4 -3.48 q0 -2.2 -1.48 -3.28 q-1.28 -0.92 -3.6 -0.92 l-11.32 0 z M118.36 35.28 l-3.64 -7.64 l-3.48 0 q-1.64 0 -2.88 0.2 q-1.52 0.28 -2.76 0.96 l0 11.2 l-4.36 0 l0 -29.84 l15.68 0 q2.76 0 4.88 1.04 t3.28 2.96 q1.24 2.04 1.24 4.8 q0 3.36 -1.8 5.52 t-5.08 3 l2.32 4.76 q1 1.48 1.56 2.08 q0.68 0.76 1.3 1.02 t1.62 0.26 l0.44 0 l0.96 -0.04 l0 4.44 q-2.32 0 -3.44 -0.16 q-1.88 -0.32 -3.2 -1.24 q-1.56 -1.12 -2.64 -3.32 z M144.16 13.32 l-1.64 -3.68 l4.8 0 l14.36 30.36 l-4.88 0 l-1.96 -4.36 l-9.08 0 q-2.56 0 -4.6 0.48 q-1.8 0.44 -3 1.16 q-1.08 0.64 -1.44 1.32 l-0.76 1.4 l-4.72 0 z M147.36 31.240000000000002 l5.52 0 l-6.52 -12.6 l-6.6 14.28 q0.88 -0.76 2.68 -1.2 q2.04 -0.48 4.92 -0.48 z M171.6 14.559999999999999 l0 9.12 q1.24 -0.72 2.8 -1 q1.16 -0.2 2.88 -0.2 l5.12 0 q2.08 0 3.26 -1.04 t1.18 -3.08 q0 -3.8 -4.44 -3.8 l-10.8 0 z M171.6 28.119999999999997 l0 7.52 l11.24 0 q1.32 0 2.52 -0.48 q1.32 -0.48 2.08 -1.4 q0.88 -1.08 0.88 -2.48 q0 -2.4 -1.88 -3.48 q-1.48 -0.88 -4.04 -0.88 l-5.12 0 q-3.44 0 -5.68 1.2 z M192.64 31.84 q0 2.8 -1.56 4.76 q-1.36 1.72 -3.84 2.6 q-2.2 0.8 -4.84 0.8 l-15.12 0 l0 -29.84 l15.12 0 q2.56 0 4.54 0.96 t3.1 2.76 q1.16 1.88 1.16 4.44 q0 1.96 -0.7 3.5 t-1.98 2.38 q1.72 0.8 2.84 2.64 q1.28 2.12 1.28 5 z M204.16 26.8 l0 13.2 l-4.32 0 l0 -29.84 l4.32 0 l0 12.24 q1.6 -0.8 3.8 -0.8 q0.8 0 3.88 0.36 q4.32 0.52 5.84 0.52 q2.32 0 4.04 -0.76 l0 -11.56 l4.36 0 l0 29.84 l-4.36 0 l0 -13.88 q-1.72 0.76 -4.04 0.76 q-1.52 0 -5.84 -0.52 q-3.08 -0.36 -3.88 -0.36 q-2.2 0 -3.8 0.8 z"></path></g><g id="SvgjsG2866" featurekey="nameFeature-1" transform="matrix(2.0951393094108415,0,0,2.0951393094108415,113.78138683878424,25.5571017738883)" fill="#233b6e"><path d="M14.44 22.92 l5.28 0 q4.4 0 4.4 -4.24 q0 -2.2 -1.1 -3.18 t-3.3 -0.98 l-10.96 0 l0 9.6 q1.24 -0.72 2.8 -1 q1.16 -0.2 2.88 -0.2 z M8.76 40 l-4.36 0 l0 -29.84 l15.32 0 q2.64 0 4.6 1.02 t3.04 2.94 t1.08 4.54 t-1.08 4.58 t-3.06 3.02 t-4.58 1.06 l-5.28 0 q-3.44 0 -5.68 1.2 l0 11.48 z M60.64 24.880000000000003 q0 -3.2 -1.64 -5.8 q-1.56 -2.52 -4.26 -3.96 t-5.86 -1.44 q-3.28 0 -5.98 1.48 t-4.22 4.04 q-1.56 2.68 -1.56 5.96 q0 3.12 1.68 5.76 q1.6 2.48 4.3 3.94 t5.84 1.46 t5.84 -1.52 t4.26 -4.08 q1.6 -2.68 1.6 -5.84 z M64.96000000000001 25.119999999999997 q0 4.32 -2.24 7.96 q-2.16 3.48 -5.86 5.54 t-7.98 2.06 q-4.44 0 -8.16 -2.16 q-3.64 -2.08 -5.72 -5.72 q-2.16 -3.72 -2.16 -8.16 q0 -4.28 2.28 -7.88 q2.16 -3.44 5.86 -5.46 t7.94 -2.02 q4.36 0 8.08 2.12 q3.64 2.08 5.76 5.64 q2.2 3.72 2.2 8.08 z M93.96000000000001 14.559999999999999 l-10.52 0 l0 25.44 l-4.24 0 l0 -25.44 l-10.64 0 l0 -4.4 l25.4 0 l0 4.4 z M103.92 28.04 l0 7.6 l18.4 0 l0 4.36 l-22.76 0 l0 -29.84 l21 0 l0 4.4 l-16.64 0 l0 9.04 q1.24 -0.72 2.76 -0.96 q1.12 -0.2 2.88 -0.2 l6.52 0 l0 4.44 l-6.52 0 q-1.64 0 -2.88 0.2 q-1.52 0.28 -2.76 0.96 z"></path></g></svg>